<mxfile host="app.diagrams.net" modified="2024-06-06T16:03:05.986Z" agent="Mozilla/5.0 (X11; Ubuntu; Linux x86_64; rv:124.0) Gecko/20100101 Firefox/124.0" etag="0NGszHYaoUvGGizaIBBo" version="24.4.15" type="device">
  <diagram name="Page-1" id="JOH3dSV8sWS4csRZ1sRG">
    <mxGraphModel dx="1461" dy="1038" grid="0" gridSize="20" guides="1" tooltips="1" connect="1" arrows="1" fold="1" page="0" pageScale="1" pageWidth="827" pageHeight="1169" math="0" shadow="0">
      <root>
        <mxCell id="0" />
        <mxCell id="1" parent="0" />
        <mxCell id="YtrTsEle_L6r-Prmye92-1" value="" style="rounded=0;whiteSpace=wrap;html=1;fontSize=25;fillColor=#f5f5f5;fontColor=#333333;strokeColor=#000000;strokeWidth=2;fontStyle=1" vertex="1" parent="1">
          <mxGeometry x="560" y="200" width="720" height="520" as="geometry" />
        </mxCell>
        <mxCell id="YtrTsEle_L6r-Prmye92-2" value="" style="rounded=0;whiteSpace=wrap;html=1;fontSize=18;fillColor=#B3B3B3;strokeColor=#000000;fontColor=#000000;strokeWidth=2;fontStyle=1;verticalAlign=middle;align=left;" vertex="1" parent="1">
          <mxGeometry x="560" y="160" width="600" height="40" as="geometry" />
        </mxCell>
        <mxCell id="YtrTsEle_L6r-Prmye92-3" value="" style="rounded=0;whiteSpace=wrap;html=1;fontSize=25;fillColor=#FF9645;strokeColor=#000000;fontColor=#ffffff;strokeWidth=2;fontStyle=1" vertex="1" parent="1">
          <mxGeometry x="1160" y="160" width="40" height="40" as="geometry" />
        </mxCell>
        <mxCell id="YtrTsEle_L6r-Prmye92-4" value="" style="rounded=0;whiteSpace=wrap;html=1;fontSize=25;fillColor=#FF9645;strokeColor=#000000;fontColor=#ffffff;strokeWidth=2;fontStyle=1" vertex="1" parent="1">
          <mxGeometry x="1240" y="160" width="40" height="40" as="geometry" />
        </mxCell>
        <mxCell id="YtrTsEle_L6r-Prmye92-5" value="" style="rounded=0;whiteSpace=wrap;html=1;fontSize=25;fillColor=#FF9645;strokeColor=#000000;fontColor=#ffffff;strokeWidth=2;fontStyle=1" vertex="1" parent="1">
          <mxGeometry x="1200" y="160" width="40" height="40" as="geometry" />
        </mxCell>
        <mxCell id="YtrTsEle_L6r-Prmye92-23" value="" style="shape=crossbar;whiteSpace=wrap;html=1;rounded=1;direction=south;fontColor=#007FFF;" vertex="1" parent="1">
          <mxGeometry x="1300" y="680" width="40" height="40" as="geometry" />
        </mxCell>
        <mxCell id="YtrTsEle_L6r-Prmye92-24" value="" style="shape=crossbar;whiteSpace=wrap;html=1;rounded=1;fontColor=#007FFF;" vertex="1" parent="1">
          <mxGeometry x="1240" y="740" width="40" height="40" as="geometry" />
        </mxCell>
        <mxCell id="YtrTsEle_L6r-Prmye92-25" value="W &lt;sub&gt;&lt;font style=&quot;font-size: 12px;&quot;&gt;PAD&lt;/font&gt;&lt;/sub&gt; + W &lt;sub&gt;&lt;font style=&quot;font-size: 12px;&quot;&gt;BORDER&lt;/font&gt;&lt;/sub&gt;" style="text;html=1;align=center;verticalAlign=middle;whiteSpace=wrap;rounded=0;fontStyle=1;fontSize=18;fontColor=#007FFF;" vertex="1" parent="1">
          <mxGeometry x="1170" y="780" width="180" height="40" as="geometry" />
        </mxCell>
        <mxCell id="YtrTsEle_L6r-Prmye92-31" value="" style="rounded=0;whiteSpace=wrap;html=1;strokeColor=none;fillColor=#007FFF;sketch=1;curveFitting=1;jiggle=2;glass=0;shadow=0;" vertex="1" parent="1">
          <mxGeometry x="460" y="780" width="60" height="40" as="geometry" />
        </mxCell>
        <mxCell id="YtrTsEle_L6r-Prmye92-34" value="Set through configuration (application end-user)" style="text;html=1;align=left;verticalAlign=middle;whiteSpace=wrap;rounded=0;fontSize=15;fontStyle=1" vertex="1" parent="1">
          <mxGeometry x="540" y="780" width="398" height="40" as="geometry" />
        </mxCell>
        <mxCell id="YtrTsEle_L6r-Prmye92-35" value="W &lt;sub&gt;&lt;font style=&quot;font-size: 12px;&quot;&gt;PAD&lt;/font&gt;&lt;/sub&gt; + W &lt;sub&gt;&lt;font style=&quot;font-size: 12px;&quot;&gt;BORDER&lt;/font&gt;&lt;/sub&gt;" style="text;html=1;align=left;verticalAlign=bottom;whiteSpace=wrap;rounded=0;fontStyle=1;fontSize=18;fontColor=#007FFF;" vertex="1" parent="1">
          <mxGeometry x="1360" y="680" width="180" height="40" as="geometry" />
        </mxCell>
        <mxCell id="YtrTsEle_L6r-Prmye92-43" value="" style="group" vertex="1" connectable="0" parent="1">
          <mxGeometry x="600" y="240" width="640" height="440" as="geometry" />
        </mxCell>
        <mxCell id="YtrTsEle_L6r-Prmye92-36" value="" style="rounded=0;whiteSpace=wrap;html=1;fontSize=25;strokeWidth=2;fillColor=none;fontColor=#333333;strokeColor=#000000;fontStyle=1;dashed=1;" vertex="1" parent="YtrTsEle_L6r-Prmye92-43">
          <mxGeometry width="640" height="440.00000000000006" as="geometry" />
        </mxCell>
        <mxCell id="YtrTsEle_L6r-Prmye92-37" value="" style="endArrow=none;html=1;rounded=0;fontSize=25;fillColor=#f9f7ed;strokeColor=#36393d;strokeWidth=2;fontStyle=1;dashed=1;" edge="1" parent="YtrTsEle_L6r-Prmye92-43">
          <mxGeometry width="50" height="50" relative="1" as="geometry">
            <mxPoint x="213.33333333333331" as="sourcePoint" />
            <mxPoint x="212" y="438.90000000000003" as="targetPoint" />
          </mxGeometry>
        </mxCell>
        <mxCell id="YtrTsEle_L6r-Prmye92-38" value="" style="endArrow=none;html=1;rounded=0;fontSize=25;fillColor=#f9f7ed;strokeColor=#36393d;strokeWidth=2;fontStyle=1;dashed=1;" edge="1" parent="YtrTsEle_L6r-Prmye92-43">
          <mxGeometry width="50" height="50" relative="1" as="geometry">
            <mxPoint x="426.66666666666663" as="sourcePoint" />
            <mxPoint x="426.66666666666663" y="438.90000000000003" as="targetPoint" />
          </mxGeometry>
        </mxCell>
        <mxCell id="YtrTsEle_L6r-Prmye92-39" value="" style="endArrow=none;html=1;rounded=0;fontSize=25;fillColor=#f9f7ed;strokeColor=#36393d;strokeWidth=2;fontStyle=1;dashed=1;" edge="1" parent="YtrTsEle_L6r-Prmye92-43">
          <mxGeometry width="50" height="50" relative="1" as="geometry">
            <mxPoint y="352" as="sourcePoint" />
            <mxPoint x="640" y="352" as="targetPoint" />
          </mxGeometry>
        </mxCell>
        <mxCell id="YtrTsEle_L6r-Prmye92-40" value="" style="endArrow=none;html=1;rounded=0;fontSize=25;fillColor=#f9f7ed;strokeColor=#36393d;strokeWidth=2;fontStyle=1;dashed=1;" edge="1" parent="YtrTsEle_L6r-Prmye92-43">
          <mxGeometry width="50" height="50" relative="1" as="geometry">
            <mxPoint y="264" as="sourcePoint" />
            <mxPoint x="640" y="264" as="targetPoint" />
          </mxGeometry>
        </mxCell>
        <mxCell id="YtrTsEle_L6r-Prmye92-41" value="" style="endArrow=none;html=1;rounded=0;fontSize=25;fillColor=#f9f7ed;strokeColor=#36393d;strokeWidth=2;fontStyle=1;dashed=1;" edge="1" parent="YtrTsEle_L6r-Prmye92-43">
          <mxGeometry width="50" height="50" relative="1" as="geometry">
            <mxPoint y="88" as="sourcePoint" />
            <mxPoint x="640" y="88" as="targetPoint" />
          </mxGeometry>
        </mxCell>
        <mxCell id="YtrTsEle_L6r-Prmye92-42" value="" style="endArrow=none;html=1;rounded=0;fontSize=25;fillColor=#f9f7ed;strokeColor=#36393d;strokeWidth=2;fontStyle=1;dashed=1;" edge="1" parent="YtrTsEle_L6r-Prmye92-43">
          <mxGeometry width="50" height="50" relative="1" as="geometry">
            <mxPoint y="176" as="sourcePoint" />
            <mxPoint x="640" y="176" as="targetPoint" />
          </mxGeometry>
        </mxCell>
      </root>
    </mxGraphModel>
  </diagram>
</mxfile>
